3400 0 2 0           
22 HOOPS-ACIS Part Viewer 14 ACIS 34.0.1 NT 24 Tue Nov  4 17:00:11 2025 
1 9.9999999999999995e-07 1e-10 
T @77 C8K3X6JD542GGGC7NXZPP3T7U754RRQU4DZKVAPVJ8MWKGP5FASKNJ7F3CJVEA7XPCSUJJN7F8TMF 
body $2 -1 -1 $-1 1 $3 $-1 $-1 T -9.5333086972934929e-15 1.499999999999325 -60.000000000000142 400.00000000000045 251.50000000000006 60.000000000000028 #
body $4 -1 -1 $-1 1 $5 $-1 $-1 T -3.979039320256561e-13 -251.50000000000065 -60.000000000000142 400.00000000000006 -1.4999999999999964 60.000000000000028 #
rgb_color-st-attrib $-1 -1 $6 $-1 $0 2 1 2 1 1 1 1 1 1 1 1 1 1 1 0 1 1 1 0.62745098039215685 0.62745098039215685 0.62745098039215685 #
lump $-1 -1 -1 $-1 $-1 $7 $0 T -9.5333086972934929e-15 1.499999999999325 -60.000000000000142 400.00000000000045 251.50000000000006 60.000000000000028 #
rgb_color-st-attrib $-1 -1 $8 $-1 $1 2 1 2 1 1 1 1 1 1 1 1 1 1 1 0 1 1 1 0.62745098039215685 0.62745098039215685 0.62745098039215685 #
lump $-1 -1 -1 $-1 $-1 $9 $1 T -3.979039320256561e-13 -251.50000000000065 -60.000000000000142 400.00000000000006 -1.4999999999999964 60.000000000000028 #
ATTRIB_CUSTOM-attrib $-1 -1 $-1 $2 $0 1 1 1 1 1 1 1 1 1 1 1 1 0 1 0 1 1 1 @20 Timestamp_attrib_def 1 1742908329696075 #
shell $-1 -1 -1 $-1 $-1 $-1 $10 $-1 $3 T -9.5333086972934929e-15 1.499999999999325 -60.000000000000142 400.00000000000045 251.50000000000006 60.000000000000028 #
ATTRIB_CUSTOM-attrib $-1 -1 $-1 $4 $1 1 1 1 1 1 1 1 1 1 1 1 1 0 1 0 1 1 1 @20 Timestamp_attrib_def 1 1742908329696075 #
shell $-1 -1 -1 $-1 $-1 $-1 $11 $-1 $5 T -3.979039320256561e-13 -251.50000000000065 -60.000000000000142 400.00000000000006 -1.4999999999999964 60.000000000000028 #
face $12 -1 -1 $-1 $13 $14 $7 $-1 $15 forward single T -9.5333086972934929e-15 1.5000000000000235 -60.000000000000142 4.2632564145606011e-13 251.50000000000006 60.000000000000028 F #
face $16 -1 -1 $-1 $17 $18 $9 $-1 $19 forward single T 399.9999999999996 -251.50000000000065 -60.000000000000142 400.00000000000006 -1.500000000000643 60.000000000000028 F #
DXID-attrib $-1 -1 $-1 $-1 $10 1 1 1 1 1 1 1 1 1 1 1 1 0 1 0 1 1 1 @10 ASM ENTITY @1 0 #
face $20 -1 -1 $-1 $21 $22 $7 $-1 $23 forward single T 2.8421709430404007e-14 23.338214055964869 59.999999999981824 400.00000000000045 251.50000000000006 60.000000000000028 F #
loop $-1 -1 -1 $-1 $-1 $24 $10 T -9.5333086972934929e-15 1.5000000000000235 -60.000000000000142 4.2632564145606011e-13 251.50000000000006 60.000000000000028 unknown #
plane-surface $-1 -1 -1 $-1 1.9895196601282805e-13 126.5 -6.2172489379008766e-14 -1 1.7380092543473221e-15 0 0 0 -10 forward_v I I I I #
DXID-attrib $-1 -1 $-1 $-1 $11 1 1 1 1 1 1 1 1 1 1 1 1 0 1 0 1 1 1 @10 ASM ENTITY @1 0 #
face $25 -1 -1 $-1 $26 $27 $9 $-1 $28 forward single T -3.979039320256561e-13 -251.50000000000065 59.999999999981824 400 -23.33821405596554 60.000000000000028 F #
loop $-1 -1 -1 $-1 $-1 $29 $11 T 399.9999999999996 -251.50000000000065 -60.000000000000142 400.00000000000006 -1.500000000000643 60.000000000000028 unknown #
plane-surface $-1 -1 -1 $-1 399.99999999999977 -126.50000000000064 -6.2172489379008766e-14 1 -1.6155445744325867e-15 0 0 0 -10 forward_v I I I I #
DXID-attrib $-1 -1 $-1 $-1 $13 1 1 1 1 1 1 1 1 1 1 1 1 0 1 0 1 1 1 @10 ASM ENTITY @1 1 #
face $30 -1 -1 $-1 $31 $32 $7 $-1 $33 forward single T 4.2632564145606011e-13 251.49999999999932 -59.999999999999986 400.00000000000045 251.50000000000003 60.000000000000028 F #
loop $-1 -1 -1 $-1 $-1 $34 $13 T 2.8421709430404007e-14 23.338214055964869 59.999999999981824 400.00000000000045 251.50000000000006 60.000000000000028 unknown #
plane-surface $-1 -1 -1 $-1 200.00000000000043 251.49999999999969 60.000000000000028 -1.3862812592163019e-28 -7.976259365413419e-14 1 -1.7380092543473222e-14 -10 -7.9762593654134188e-13 forward_v I I I I #
coedge $-1 -1 -1 $-1 $35 $36 $37 $38 forward $14 $-1 #
DXID-attrib $-1 -1 $-1 $-1 $17 1 1 1 1 1 1 1 1 1 1 1 1 0 1 0 1 1 1 @10 ASM ENTITY @1 1 #
face $39 -1 -1 $-1 $40 $41 $9 $-1 $42 forward single T -3.979039320256561e-13 -251.50000000000063 -59.999999999999986 399.9999999999996 -251.5 60.000000000000028 F #
loop $-1 -1 -1 $-1 $-1 $43 $17 T -3.979039320256561e-13 -251.50000000000065 59.999999999981824 400 -23.33821405596554 60.000000000000028 unknown #
plane-surface $-1 -1 -1 $-1 199.9999999999996 -251.50000000000031 60.000000000000028 1.2886002542060756e-28 7.976259365413419e-14 1 1.6155445744325867e-14 10 -7.9762593654134188e-13 forward_v I I I I #
coedge $-1 -1 -1 $-1 $44 $45 $46 $47 forward $18 $-1 #
DXID-attrib $-1 -1 $-1 $-1 $21 1 1 1 1 1 1 1 1 1 1 1 1 0 1 0 1 1 1 @10 ASM ENTITY @1 2 #
face $48 -1 -1 $-1 $49 $50 $7 $-1 $51 forward single T 2.8421709430404007e-14 23.338214055971552 -60.000000000000142 400.00000000000045 251.50000000000003 -59.999999999999986 F #
loop $-1 -1 -1 $-1 $-1 $52 $21 T 4.2632564145606011e-13 251.49999999999932 -59.999999999999986 400.00000000000045 251.50000000000003 60.000000000000028 unknown #
plane-surface $-1 -1 -1 $-1 200.00000000000043 251.49999999999969 -59.999999999999972 1.7380092543473221e-15 1 0 0 0 10 forward_v I I I I #
coedge $-1 -1 -1 $-1 $53 $54 $55 $56 reversed $22 $-1 #
coedge $-1 -1 -1 $-1 $57 $24 $54 $58 forward $14 $-1 #
coedge $-1 -1 -1 $-1 $24 $59 $60 $61 forward $14 $-1 #
coedge $-1 -1 -1 $-1 $62 $55 $24 $38 reversed $63 $-1 #
edge $-1 -1 -1 $-1 $64 0 $65 6.3850666348535396 $37 $66 forward @7 unknown T 0 1.5000000000000235 0 3.7955018127685876e-14 23.338214055965569 59.999999999981831 #
DXID-attrib $-1 -1 $-1 $-1 $26 1 1 1 1 1 1 1 1 1 1 1 1 0 1 0 1 1 1 @10 ASM ENTITY @1 2 #
face $67 -1 -1 $-1 $68 $69 $9 $-1 $70 forward single T -3.979039320256561e-13 -251.50000000000063 -60.000000000000142 400 -23.338214055972223 -59.999999999999986 F #
loop $-1 -1 -1 $-1 $-1 $71 $26 T -3.979039320256561e-13 -251.50000000000063 -59.999999999999986 399.9999999999996 -251.5 60.000000000000028 unknown #
plane-surface $-1 -1 -1 $-1 199.9999999999996 -251.50000000000031 -59.999999999999972 -1.6155445744325867e-15 -1 0 0 0 10 forward_v I I I I #
coedge $-1 -1 -1 $-1 $72 $73 $74 $75 reversed $27 $-1 #
coedge $-1 -1 -1 $-1 $76 $29 $73 $77 forward $18 $-1 #
coedge $-1 -1 -1 $-1 $29 $78 $79 $80 forward $18 $-1 #
coedge $-1 -1 -1 $-1 $81 $74 $29 $47 reversed $82 $-1 #
edge $-1 -1 -1 $-1 $83 0 $84 6.3850666348535396 $46 $85 forward @7 unknown T 399.99999999999994 -23.338214055966191 0 400 -1.5000000000006453 59.999999999981831 #
DXID-attrib $-1 -1 $-1 $-1 $31 1 1 1 1 1 1 1 1 1 1 1 1 0 1 0 1 1 1 @10 ASM ENTITY @1 3 #
face $86 -1 -1 $-1 $87 $88 $7 $-1 $89 forward single T -9.5333086972934929e-15 1.499999999999325 -60.000000000000142 400 23.338214055972252 0 F #
loop $-1 -1 -1 $-1 $-1 $90 $31 T 2.8421709430404007e-14 23.338214055971552 -60.000000000000142 400.00000000000045 251.50000000000003 -59.999999999999986 unknown #
plane-surface $-1 -1 -1 $-1 200.00000000000003 23.338214055971914 -60.000000000000142 1.2178166259587198e-30 7.0069628393092121e-16 -1 1.7380092543473222e-14 10 7.0069628393092119e-15 forward_v I I I I #
coedge $-1 -1 -1 $-1 $91 $92 $93 $94 forward $32 $-1 #
coedge $-1 -1 -1 $-1 $93 $34 $95 $96 reversed $22 $-1 #
coedge $-1 -1 -1 $-1 $34 $93 $35 $58 reversed $22 $-1 #
coedge $-1 -1 -1 $-1 $37 $97 $34 $56 forward $63 $-1 #
edge $-1 -1 -1 $-1 $98 -20 $65 20 $55 $99 forward @7 unknown T 2.8421709430404007e-14 23.338214055964869 59.999999999981824 400 23.338214055965565 59.999999999981824 #
coedge $-1 -1 -1 $-1 $59 $35 $92 $100 forward $14 $-1 #
edge $-1 -1 -1 $-1 $65 0 $101 22.816178594403446 $54 $102 forward @7 unknown T 2.8421709430404007e-14 23.338214055965565 59.999999999981824 4.2632564145606011e-13 251.50000000000006 60.000000000000028 #
coedge $-1 -1 -1 $-1 $36 $57 $103 $104 forward $14 $-1 #
coedge $-1 -1 -1 $-1 $105 $106 $36 $61 reversed $88 $-1 #
edge $-1 -1 -1 $-1 $107 0 $64 6.3850666348554892 $60 $108 forward @7 unknown T -9.5333086972934929e-15 1.5000000000000235 -60.000000000000142 2.8421709430404007e-14 23.338214055972252 0 #
coedge $-1 -1 -1 $-1 $97 $37 $106 $109 forward $63 $-1 #
loop $-1 -1 -1 $-1 $-1 $62 $87 T 0 1.4999999999993285 0 400.00000000000006 23.338214055965569 59.999999999981831 unknown #
vertex $-1 -1 -1 $-1 $38 $110 #
vertex $-1 -1 -1 $-1 $38 $111 #
straight-curve $-1 -1 -1 $-1 0 1.5000000000000235 0 5.9443417427321004e-16 0.34202014332566893 0.93969262078590832 10 I I #
DXID-attrib $-1 -1 $-1 $-1 $40 1 1 1 1 1 1 1 1 1 1 1 1 0 1 0 1 1 1 @10 ASM ENTITY @1 3 #
face $112 -1 -1 $-1 $113 $114 $9 $-1 $115 forward single T -2.8421709430404007e-14 -23.33821405597287 -60.000000000000142 400.00000000000006 -1.4999999999999964 0 F #
loop $-1 -1 -1 $-1 $-1 $116 $40 T -3.979039320256561e-13 -251.50000000000063 -60.000000000000142 400 -23.338214055972223 -59.999999999999986 unknown #
plane-surface $-1 -1 -1 $-1 199.99999999999997 -23.338214055972561 -60.000000000000142 -1.132006079829675e-30 -7.0069628393092121e-16 -1 -1.6155445744325867e-14 -10 7.0069628393092119e-15 forward_v I I I I #
coedge $-1 -1 -1 $-1 $117 $118 $119 $120 forward $41 $-1 #
coedge $-1 -1 -1 $-1 $119 $43 $121 $122 reversed $27 $-1 #
coedge $-1 -1 -1 $-1 $43 $119 $44 $77 reversed $27 $-1 #
coedge $-1 -1 -1 $-1 $46 $123 $43 $75 forward $82 $-1 #
edge $-1 -1 -1 $-1 $124 -20 $84 20 $74 $125 forward @7 unknown T -2.8421709430404007e-14 -23.338214055966187 59.999999999981824 400 -23.33821405596554 59.999999999981824 #
coedge $-1 -1 -1 $-1 $78 $44 $118 $126 forward $18 $-1 #
edge $-1 -1 -1 $-1 $84 0 $127 22.816178594403446 $73 $128 forward @7 unknown T 399.9999999999996 -251.50000000000065 59.999999999981824 400 -23.338214055966187 60.000000000000028 #
coedge $-1 -1 -1 $-1 $45 $76 $129 $130 forward $18 $-1 #
coedge $-1 -1 -1 $-1 $131 $132 $45 $80 reversed $114 $-1 #
edge $-1 -1 -1 $-1 $133 0 $83 6.3850666348554892 $79 $134 forward @7 unknown T 400 -23.33821405597287 -60.000000000000142 400.00000000000006 -1.500000000000643 0 #
coedge $-1 -1 -1 $-1 $123 $46 $132 $135 forward $82 $-1 #
loop $-1 -1 -1 $-1 $-1 $81 $113 T -3.5280608233412582e-14 -23.338214055966191 0 400 -1.4999999999999991 59.999999999981831 unknown #
vertex $-1 -1 -1 $-1 $47 $136 #
vertex $-1 -1 -1 $-1 $47 $137 #
straight-curve $-1 -1 -1 $-1 400 -1.5000000000006453 0 -5.5254878689644005e-16 -0.34202014332566893 0.93969262078590832 10 I I #
DXID-attrib $-1 -1 $-1 $-1 $49 1 1 1 1 1 1 1 1 1 1 1 1 0 1 0 1 1 1 @10 ASM ENTITY @1 4 #
face $138 -1 -1 $-1 $139 $63 $7 $-1 $140 forward single T 0 1.4999999999993285 0 400.00000000000006 23.338214055965569 59.999999999981831 F #
loop $-1 -1 -1 $-1 $-1 $105 $49 T -9.5333086972934929e-15 1.499999999999325 -60.000000000000142 400 23.338214055972252 0 unknown #
plane-surface $-1 -1 -1 $-1 200 1.499999999999676 0 -1.6331944711677971e-15 -0.93969262078590821 -0.34202014332566916 5.9443417427321049e-15 3.4202014332566915 -9.3969262078590816 forward_v I I I I #
coedge $-1 -1 -1 $-1 $141 $103 $142 $143 forward $50 $-1 #
coedge $-1 -1 -1 $-1 $142 $52 $144 $145 reversed $32 $-1 #
coedge $-1 -1 -1 $-1 $52 $142 $57 $100 reversed $32 $-1 #
coedge $-1 -1 -1 $-1 $54 $53 $52 $94 reversed $22 $-1 #
edge $-1 -1 -1 $-1 $101 -20 $146 20 $93 $147 forward @7 unknown T 4.2632564145606011e-13 251.49999999999932 60.000000000000028 400.00000000000045 251.50000000000003 60.000000000000028 #
coedge $-1 -1 -1 $-1 $148 $144 $53 $96 forward $149 $-1 #
edge $-1 -1 -1 $-1 $146 -22.816178594403446 $98 -0 $95 $150 forward @7 unknown T 400 23.338214055964869 59.999999999981824 400.00000000000045 251.49999999999935 60.000000000000028 #
coedge $-1 -1 -1 $-1 $55 $62 $148 $151 reversed $63 $-1 #
vertex $-1 -1 -1 $-1 $56 $152 #
straight-curve $-1 -1 -1 $-1 200.00000000000003 23.338214055965217 59.999999999981824 -1 1.7380092543473223e-15 0 10 I I #
edge $-1 -1 -1 $-1 $101 0 $153 12 $57 $154 forward @7 unknown T 4.2632564145606011e-13 251.50000000000003 -59.999999999999986 4.2632564145606011e-13 251.50000000000003 60.000000000000028 #
vertex $-1 -1 -1 $-1 $58 $155 #
straight-curve $-1 -1 -1 $-1 2.8421709430404007e-14 23.338214055965565 59.999999999981824 1.7380092543473223e-15 1 7.976259365413419e-14 10 I I #
coedge $-1 -1 -1 $-1 $90 $156 $59 $104 reversed $50 $-1 #
edge $-1 -1 -1 $-1 $153 0 $107 22.816178594402775 $59 $157 forward @7 unknown T 2.8421709430404007e-14 23.338214055972252 -60.000000000000142 4.2632564145606011e-13 251.50000000000003 -59.999999999999986 #
coedge $-1 -1 -1 $-1 $158 $60 $156 $159 forward $88 $-1 #
coedge $-1 -1 -1 $-1 $60 $158 $62 $109 reversed $88 $-1 #
vertex $-1 -1 -1 $-1 $104 $160 #
straight-curve $-1 -1 -1 $-1 2.8421709430404007e-14 23.338214055972252 -60.000000000000142 -5.9443417427321053e-16 -0.34202014332566916 0.93969262078590821 10 I I #
edge $-1 -1 -1 $-1 $64 -20 $161 20 $62 $162 forward @7 unknown T 0 1.4999999999993285 0 400 1.5000000000000235 0 #
point $-1 -1 -1 $-1 0 1.5000000000000235 0 #
point $-1 -1 -1 $-1 2.8421709430404007e-14 23.338214055965565 59.999999999981824 #
DXID-attrib $-1 -1 $-1 $-1 $68 1 1 1 1 1 1 1 1 1 1 1 1 0 1 0 1 1 1 @10 ASM ENTITY @1 4 #
face $163 -1 -1 $-1 $164 $82 $9 $-1 $165 forward single T -3.5280608233412582e-14 -23.338214055966191 0 400 -1.4999999999999991 59.999999999981831 F #
loop $-1 -1 -1 $-1 $-1 $131 $68 T -2.8421709430404007e-14 -23.33821405597287 -60.000000000000142 400.00000000000006 -1.4999999999999964 0 unknown #
plane-surface $-1 -1 -1 $-1 200 -1.5000000000003222 0 1.5181153151450121e-15 0.93969262078590821 -0.34202014332566916 -5.5254878689644049e-15 -3.4202014332566915 -9.3969262078590816 forward_v I I I I #
coedge $-1 -1 -1 $-1 $166 $129 $167 $168 forward $69 $-1 #
coedge $-1 -1 -1 $-1 $167 $71 $169 $170 reversed $41 $-1 #
coedge $-1 -1 -1 $-1 $71 $167 $76 $126 reversed $41 $-1 #
coedge $-1 -1 -1 $-1 $73 $72 $71 $120 reversed $27 $-1 #
edge $-1 -1 -1 $-1 $127 -20 $171 20 $71 $172 forward @7 unknown T -3.979039320256561e-13 -251.50000000000063 60.000000000000028 399.9999999999996 -251.5 60.000000000000028 #
coedge $-1 -1 -1 $-1 $173 $169 $72 $122 forward $174 $-1 #
edge $-1 -1 -1 $-1 $171 -22.816178594403446 $124 -0 $72 $175 forward @7 unknown T -3.979039320256561e-13 -251.50000000000003 59.999999999981824 -2.8421709430404007e-14 -23.33821405596554 60.000000000000028 #
coedge $-1 -1 -1 $-1 $74 $81 $173 $176 reversed $82 $-1 #
vertex $-1 -1 -1 $-1 $75 $177 #
straight-curve $-1 -1 -1 $-1 199.99999999999997 -23.338214055965864 59.999999999981824 1 -1.6155445744325867e-15 0 10 I I #
edge $-1 -1 -1 $-1 $127 0 $178 12 $118 $179 forward @7 unknown T 399.9999999999996 -251.50000000000063 -59.999999999999986 399.9999999999996 -251.50000000000063 60.000000000000028 #
vertex $-1 -1 -1 $-1 $77 $180 #
straight-curve $-1 -1 -1 $-1 400 -23.338214055966187 59.999999999981824 -1.6155445744325867e-15 -1 7.976259365413419e-14 10 I I #
coedge $-1 -1 -1 $-1 $116 $181 $78 $130 reversed $69 $-1 #
edge $-1 -1 -1 $-1 $178 0 $133 22.816178594402775 $129 $182 forward @7 unknown T 399.9999999999996 -251.50000000000063 -60.000000000000142 400 -23.33821405597287 -59.999999999999986 #
coedge $-1 -1 -1 $-1 $183 $79 $181 $184 forward $114 $-1 #
coedge $-1 -1 -1 $-1 $79 $183 $81 $135 reversed $114 $-1 #
vertex $-1 -1 -1 $-1 $130 $185 #
straight-curve $-1 -1 -1 $-1 400 -23.33821405597287 -60.000000000000142 5.5254878689644045e-16 0.34202014332566916 0.93969262078590821 10 I I #
edge $-1 -1 -1 $-1 $83 -20 $186 20 $81 $187 forward @7 unknown T 0 -1.5000000000006453 0 400 -1.4999999999999991 0 #
point $-1 -1 -1 $-1 400 -1.5000000000006453 0 #
point $-1 -1 -1 $-1 400 -23.338214055966187 59.999999999981824 #
DXID-attrib $-1 -1 $-1 $-1 $87 1 1 1 1 1 1 1 1 1 1 1 1 0 1 0 1 1 1 @10 ASM ENTITY @1 5 #
face $188 -1 -1 $-1 $-1 $149 $7 $-1 $189 forward single T 399.99999999999994 1.499999999999325 -60.000000000000142 400.00000000000045 251.49999999999935 60.000000000000028 F #
plane-surface $-1 -1 -1 $-1 200.00000000000003 23.338214055965217 59.999999999981824 -1.6331944711677973e-15 -0.93969262078590832 0.34202014332566893 -5.9443417427321002e-15 -3.4202014332566892 -9.3969262078590834 forward_v I I I I #
coedge $-1 -1 -1 $-1 $156 $90 $190 $191 reversed $50 $-1 #
coedge $-1 -1 -1 $-1 $92 $91 $90 $143 reversed $32 $-1 #
edge $-1 -1 -1 $-1 $153 -20 $192 20 $90 $193 forward @7 unknown T 4.2632564145606011e-13 251.49999999999932 -59.999999999999986 400.00000000000045 251.50000000000003 -59.999999999999986 #
coedge $-1 -1 -1 $-1 $95 $190 $91 $145 forward $149 $-1 #
edge $-1 -1 -1 $-1 $192 -12 $146 -0 $144 $194 forward @7 unknown T 400.00000000000045 251.49999999999932 -59.999999999999986 400.00000000000045 251.49999999999932 60.000000000000028 #
vertex $-1 -1 -1 $-1 $96 $195 #
straight-curve $-1 -1 -1 $-1 200.00000000000043 251.49999999999969 60.000000000000028 1 -1.7380092543473223e-15 0 10 I I #
coedge $-1 -1 -1 $-1 $196 $95 $97 $151 forward $149 $-1 #
loop $-1 -1 -1 $-1 $-1 $148 $139 T 399.99999999999994 1.499999999999325 -60.000000000000142 400.00000000000045 251.49999999999935 60.000000000000028 unknown #
straight-curve $-1 -1 -1 $-1 400 23.338214055964869 59.999999999981824 -1.7380092543473223e-15 -1 -7.976259365413419e-14 10 I I #
edge $-1 -1 -1 $-1 $98 -6.3850666348535396 $161 -0 $97 $197 forward @7 unknown T 400 1.4999999999993285 0 400.00000000000006 23.338214055964873 59.999999999981831 #
point $-1 -1 -1 $-1 400 23.338214055964869 59.999999999981824 #
vertex $-1 -1 -1 $-1 $100 $198 #
straight-curve $-1 -1 -1 $-1 4.2632564145606011e-13 251.50000000000003 60.000000000000028 0 0 -1 10 I I #
point $-1 -1 -1 $-1 4.2632564145606011e-13 251.50000000000003 60.000000000000028 #
coedge $-1 -1 -1 $-1 $103 $141 $105 $159 reversed $50 $-1 #
straight-curve $-1 -1 -1 $-1 4.2632564145606011e-13 251.50000000000003 -59.999999999999986 -1.7380092543473223e-15 -1 -7.0069628393092121e-16 10 I I #
coedge $-1 -1 -1 $-1 $106 $105 $196 $199 reversed $88 $-1 #
edge $-1 -1 -1 $-1 $107 -20 $200 20 $105 $201 forward @7 unknown T 2.8421709430404007e-14 23.338214055971552 -60.000000000000142 400 23.338214055972252 -60.000000000000142 #
point $-1 -1 -1 $-1 2.8421709430404007e-14 23.338214055972252 -60.000000000000142 #
vertex $-1 -1 -1 $-1 $199 $202 #
straight-curve $-1 -1 -1 $-1 200 1.499999999999676 0 1 -1.7380092543473223e-15 0 10 I I #
DXID-attrib $-1 -1 $-1 $-1 $113 1 1 1 1 1 1 1 1 1 1 1 1 0 1 0 1 1 1 @10 ASM ENTITY @1 5 #
face $203 -1 -1 $-1 $-1 $174 $9 $-1 $204 forward single T -3.979039320256561e-13 -251.50000000000003 -60.000000000000142 6.8588988030193727e-15 -1.4999999999999964 60.000000000000028 F #
plane-surface $-1 -1 -1 $-1 199.99999999999997 -23.338214055965864 59.999999999981824 1.5181153151450123e-15 0.93969262078590832 0.34202014332566893 5.5254878689644009e-15 3.4202014332566892 -9.3969262078590834 forward_v I I I I #
coedge $-1 -1 -1 $-1 $181 $116 $205 $206 reversed $69 $-1 #
coedge $-1 -1 -1 $-1 $118 $117 $116 $168 reversed $41 $-1 #
edge $-1 -1 -1 $-1 $178 -20 $207 20 $116 $208 forward @7 unknown T -3.979039320256561e-13 -251.50000000000063 -59.999999999999986 399.9999999999996 -251.5 -59.999999999999986 #
coedge $-1 -1 -1 $-1 $121 $205 $117 $170 forward $174 $-1 #
edge $-1 -1 -1 $-1 $207 -12 $171 -0 $117 $209 forward @7 unknown T -3.979039320256561e-13 -251.5 -59.999999999999986 -3.979039320256561e-13 -251.5 60.000000000000028 #
vertex $-1 -1 -1 $-1 $122 $210 #
straight-curve $-1 -1 -1 $-1 199.9999999999996 -251.50000000000031 60.000000000000028 -1 1.6155445744325867e-15 0 10 I I #
coedge $-1 -1 -1 $-1 $211 $121 $123 $176 forward $174 $-1 #
loop $-1 -1 -1 $-1 $-1 $173 $164 T -3.979039320256561e-13 -251.50000000000003 -60.000000000000142 6.8588988030193727e-15 -1.4999999999999964 60.000000000000028 unknown #
straight-curve $-1 -1 -1 $-1 -2.8421709430404007e-14 -23.33821405596554 59.999999999981824 1.6155445744325867e-15 1 -7.976259365413419e-14 10 I I #
edge $-1 -1 -1 $-1 $124 -6.3850666348535396 $186 -0 $123 $212 forward @7 unknown T -3.5280608233412582e-14 -23.338214055965544 0 0 -1.4999999999999991 59.999999999981831 #
point $-1 -1 -1 $-1 -2.8421709430404007e-14 -23.33821405596554 59.999999999981824 #
vertex $-1 -1 -1 $-1 $126 $213 #
straight-curve $-1 -1 -1 $-1 399.9999999999996 -251.50000000000063 60.000000000000028 0 0 -1 10 I I #
point $-1 -1 -1 $-1 399.9999999999996 -251.50000000000063 60.000000000000028 #
coedge $-1 -1 -1 $-1 $129 $166 $131 $184 reversed $69 $-1 #
straight-curve $-1 -1 -1 $-1 399.9999999999996 -251.50000000000063 -59.999999999999986 1.6155445744325867e-15 1 -7.0069628393092121e-16 10 I I #
coedge $-1 -1 -1 $-1 $132 $131 $211 $214 reversed $114 $-1 #
edge $-1 -1 -1 $-1 $133 -20 $215 20 $131 $216 forward @7 unknown T -2.8421709430404007e-14 -23.33821405597287 -60.000000000000142 400 -23.338214055972223 -60.000000000000142 #
point $-1 -1 -1 $-1 400 -23.33821405597287 -60.000000000000142 #
vertex $-1 -1 -1 $-1 $214 $217 #
straight-curve $-1 -1 -1 $-1 200 -1.5000000000003222 0 -1 1.6155445744325867e-15 0 10 I I #
DXID-attrib $-1 -1 $-1 $-1 $139 1 1 1 1 1 1 1 1 1 1 1 1 0 1 0 1 1 1 @10 ASM ENTITY @1 6 #
plane-surface $-1 -1 -1 $-1 400.00000000000023 126.49999999999932 -6.2172489379008766e-14 1 -1.7380092543473221e-15 0 0 0 10 forward_v I I I I #
coedge $-1 -1 -1 $-1 $144 $196 $141 $191 forward $149 $-1 #
edge $-1 -1 -1 $-1 $200 -22.816178594402775 $192 -0 $190 $218 forward @7 unknown T 400 23.338214055971552 -60.000000000000142 400.00000000000045 251.49999999999932 -59.999999999999986 #
vertex $-1 -1 -1 $-1 $145 $219 #
straight-curve $-1 -1 -1 $-1 200.00000000000043 251.49999999999969 -59.999999999999986 1 -1.7380092543473223e-15 0 10 I I #
straight-curve $-1 -1 -1 $-1 400.00000000000045 251.49999999999932 60.000000000000028 0 0 1 10 I I #
point $-1 -1 -1 $-1 400.00000000000045 251.49999999999932 60.000000000000028 #
coedge $-1 -1 -1 $-1 $190 $148 $158 $199 forward $149 $-1 #
straight-curve $-1 -1 -1 $-1 400 1.4999999999993285 0 -5.9443417427321004e-16 -0.34202014332566893 -0.93969262078590832 10 I I #
point $-1 -1 -1 $-1 4.2632564145606011e-13 251.50000000000003 -59.999999999999986 #
edge $-1 -1 -1 $-1 $161 -6.3850666348554892 $200 -0 $158 $220 forward @7 unknown T 399.99999999999994 1.499999999999325 -60.000000000000142 400 23.338214055971552 0 #
vertex $-1 -1 -1 $-1 $191 $221 #
straight-curve $-1 -1 -1 $-1 200.00000000000003 23.3382140559719 -60.000000000000142 1 -1.7380092543473223e-15 0 10 I I #
point $-1 -1 -1 $-1 400 1.4999999999993285 0 #
DXID-attrib $-1 -1 $-1 $-1 $164 1 1 1 1 1 1 1 1 1 1 1 1 0 1 0 1 1 1 @10 ASM ENTITY @1 6 #
plane-surface $-1 -1 -1 $-1 -1.9895196601282805e-13 -126.49999999999999 -6.2172489379008766e-14 -1 1.6155445744325867e-15 0 0 0 10 forward_v I I I I #
coedge $-1 -1 -1 $-1 $169 $211 $166 $206 forward $174 $-1 #
edge $-1 -1 -1 $-1 $215 -22.816178594402775 $207 -0 $166 $222 forward @7 unknown T -3.979039320256561e-13 -251.5 -60.000000000000142 -2.8421709430404007e-14 -23.338214055972223 -59.999999999999986 #
vertex $-1 -1 -1 $-1 $170 $223 #
straight-curve $-1 -1 -1 $-1 199.9999999999996 -251.50000000000031 -59.999999999999986 -1 1.6155445744325867e-15 0 10 I I #
straight-curve $-1 -1 -1 $-1 -3.979039320256561e-13 -251.5 60.000000000000028 0 0 1 10 I I #
point $-1 -1 -1 $-1 -3.979039320256561e-13 -251.5 60.000000000000028 #
coedge $-1 -1 -1 $-1 $205 $173 $183 $214 forward $174 $-1 #
straight-curve $-1 -1 -1 $-1 0 -1.4999999999999991 0 5.5254878689644005e-16 0.34202014332566893 -0.93969262078590832 10 I I #
point $-1 -1 -1 $-1 399.9999999999996 -251.50000000000063 -59.999999999999986 #
edge $-1 -1 -1 $-1 $186 -6.3850666348554892 $215 -0 $183 $224 forward @7 unknown T -2.8421709430404007e-14 -23.338214055972223 -60.000000000000142 6.8588988030193727e-15 -1.4999999999999964 0 #
vertex $-1 -1 -1 $-1 $206 $225 #
straight-curve $-1 -1 -1 $-1 199.99999999999997 -23.338214055972546 -60.000000000000142 -1 1.6155445744325867e-15 0 10 I I #
point $-1 -1 -1 $-1 0 -1.4999999999999991 0 #
straight-curve $-1 -1 -1 $-1 400.00000000000045 251.49999999999932 -59.999999999999986 1.7380092543473223e-15 1 7.0069628393092121e-16 10 I I #
point $-1 -1 -1 $-1 400.00000000000045 251.49999999999932 -59.999999999999986 #
straight-curve $-1 -1 -1 $-1 400 23.338214055971552 -60.000000000000142 5.9443417427321053e-16 0.34202014332566916 -0.93969262078590821 10 I I #
point $-1 -1 -1 $-1 400 23.338214055971552 -60.000000000000142 #
straight-curve $-1 -1 -1 $-1 -3.979039320256561e-13 -251.5 -59.999999999999986 -1.6155445744325867e-15 -1 7.0069628393092121e-16 10 I I #
point $-1 -1 -1 $-1 -3.979039320256561e-13 -251.5 -59.999999999999986 #
straight-curve $-1 -1 -1 $-1 -2.8421709430404007e-14 -23.338214055972223 -60.000000000000142 -5.5254878689644045e-16 -0.34202014332566916 -0.93969262078590821 10 I I #
point $-1 -1 -1 $-1 -2.8421709430404007e-14 -23.338214055972223 -60.000000000000142 #
End-of-ACIS-data 